#define battery_width 15
#define battery_height 15
static unsigned char battery_bits[] = {
   0x00, 0x00, 0x00, 0x00, 0x00, 0x00, 0x00, 0x00, 0x00, 0x00, 0xfc, 0x0f,
   0xfc, 0x08, 0xfc, 0x38, 0xfc, 0x38, 0xfc, 0x08, 0xfc, 0x0f, 0x00, 0x00,
   0x00, 0x00, 0x00, 0x00, 0x00, 0x00};
