#define volume_width 16
#define volume_height 16
static unsigned char volume_bits[] = {
   0x00, 0x00, 0x00, 0x00, 0x00, 0x18, 0x00, 0x1b, 0x60, 0x1b, 0x60, 0x1b,
   0x6c, 0x1b, 0x6c, 0x1b, 0x6c, 0x1b, 0x60, 0x1b, 0x60, 0x1b, 0x00, 0x1b,
   0x00, 0x18, 0x00, 0x00, 0x00, 0x00, 0x00, 0x00};
